<svg aria-hidden="true" style="position: absolute; width: 0; height: 0; overflow: hidden;" version="1.1" xmlns="http://www.w3.org/2000/svg" xmlns:xlink="http://www.w3.org/1999/xlink">
    <defs>
        <symbol id="icon-bag" viewBox="0 0 32 32">
            <title>bag</title>
            <path d="M29.878 30.948l-2.432-23.161c-0.051-0.485-0.46-0.853-0.947-0.853h-4.571v-1.042c0-3.249-2.643-5.892-5.892-5.892s-5.892 2.643-5.892 5.892v1.042h-4.571c-0.488 0-0.896 0.368-0.947 0.853l-2.432 23.161c-0.028 0.268 0.059 0.536 0.24 0.737s0.438 0.315 0.708 0.315h25.791c0.27 0 0.527-0.114 0.708-0.315s0.268-0.468 0.24-0.737zM12.048 5.892c0-2.198 1.789-3.987 3.988-3.987s3.987 1.789 3.987 3.987v1.042h-7.975zM4.198 30.095l2.232-21.256h3.714v2.099c0 0.526 0.427 0.952 0.952 0.952s0.952-0.427 0.952-0.952v-2.099h7.975v2.099c0 0.526 0.427 0.952 0.952 0.952s0.952-0.427 0.952-0.952v-2.099h3.714l2.232 21.256z"></path>
        </symbol>

        <symbol id="icon-close" viewBox="0 0 32 32">
            <title>close</title>
            <path d="M31.999 0.997l-0.996-0.997-15.004 15.003-15.003-15.003-0.997 0.997 15.003 15.002-15.003 15.003 0.997 0.998 15.003-15.005 15.004 15.005 0.996-0.998-15.003-15.003z"></path>
        </symbol>

        <symbol id="icon-menu" viewBox="0 0 32 32">
            <title>menu</title>
            <path d="M16 0c-8.822 0-16 7.178-16 16s7.178 16 16 16 16-7.178 16-16-7.178-16-16-16zM22.857 23.429h-13.714c-0.631 0-1.143-0.512-1.143-1.143s0.512-1.143 1.143-1.143h13.714c0.631 0 1.143 0.512 1.143 1.143s-0.512 1.143-1.143 1.143zM22.857 17.143h-13.714c-0.631 0-1.143-0.512-1.143-1.143s0.512-1.143 1.143-1.143h13.714c0.631 0 1.143 0.512 1.143 1.143s-0.512 1.143-1.143 1.143zM22.857 10.857h-13.714c-0.631 0-1.143-0.512-1.143-1.143s0.512-1.143 1.143-1.143h13.714c0.631 0 1.143 0.512 1.143 1.143s-0.512 1.143-1.143 1.143z"></path>
        </symbol>

        <symbol id="icon-search" viewBox="0 0 32 32">
            <title>search</title>
            <path d="M31.72 30.368l-7.776-7.776c2.086-2.398 3.349-5.527 3.349-8.947 0-7.528-6.123-13.644-13.644-13.644-7.528 0-13.644 6.123-13.644 13.644s6.123 13.644 13.644 13.644c3.42 0 6.549-1.263 8.947-3.349l7.776 7.777c0.184 0.184 0.433 0.284 0.674 0.284s0.49-0.092 0.674-0.284c0.369-0.369 0.369-0.979 0-1.348zM1.912 13.644c0-6.471 5.265-11.729 11.729-11.729 6.471 0 11.729 5.265 11.729 11.729s-5.258 11.736-11.729 11.736c-6.464 0-11.729-5.265-11.729-11.736z"></path>
        </symbol>
    </defs>
</svg>