<svg aria-hidden="true" style="position: absolute; width: 0; height: 0; overflow: hidden;" version="1.1" xmlns="http://www.w3.org/2000/svg" xmlns:xlink="http://www.w3.org/1999/xlink">
    <defs>
        <symbol id="icon-bag" viewBox="0 0 32 32">
            <title>bag</title>
            <path d="M29.878 30.948l-2.432-23.161c-0.051-0.485-0.46-0.853-0.947-0.853h-4.571v-1.042c0-3.249-2.643-5.892-5.892-5.892s-5.892 2.643-5.892 5.892v1.042h-4.571c-0.488 0-0.896 0.368-0.947 0.853l-2.432 23.161c-0.028 0.268 0.059 0.536 0.24 0.737s0.438 0.315 0.708 0.315h25.791c0.27 0 0.527-0.114 0.708-0.315s0.268-0.468 0.24-0.737zM12.048 5.892c0-2.198 1.789-3.987 3.988-3.987s3.987 1.789 3.987 3.987v1.042h-7.975zM4.198 30.095l2.232-21.256h3.714v2.099c0 0.526 0.427 0.952 0.952 0.952s0.952-0.427 0.952-0.952v-2.099h7.975v2.099c0 0.526 0.427 0.952 0.952 0.952s0.952-0.427 0.952-0.952v-2.099h3.714l2.232 21.256z"></path>
        </symbol>

        <symbol id="icon-close" viewBox="0 0 32 32">
            <title>close</title>
            <path d="M27.319 4.681c-6.241-6.241-16.396-6.242-22.638 0s-6.241 16.396 0 22.638 16.396 6.242 22.638 0c6.241-6.242 6.241-16.397 0-22.638zM22.312 22.312c-0.481 0.481-1.26 0.481-1.741 0l-4.571-4.571-4.789 4.789c-0.481 0.481-1.26 0.481-1.741 0s-0.481-1.26 0-1.741l4.789-4.789-4.571-4.571c-0.481-0.481-0.481-1.261 0-1.741s1.26-0.481 1.741 0l4.571 4.571 4.353-4.353c0.481-0.481 1.26-0.481 1.741 0s0.481 1.26 0 1.741l-4.353 4.353 4.571 4.571c0.481 0.481 0.481 1.26 0 1.741z"></path>
        </symbol>

        <symbol id="icon-menu" viewBox="0 0 32 32">
            <title>menu</title>
            <path d="M16 0c-8.822 0-16 7.178-16 16s7.178 16 16 16 16-7.178 16-16-7.178-16-16-16zM22.857 23.429h-13.714c-0.631 0-1.143-0.512-1.143-1.143s0.512-1.143 1.143-1.143h13.714c0.631 0 1.143 0.512 1.143 1.143s-0.512 1.143-1.143 1.143zM22.857 17.143h-13.714c-0.631 0-1.143-0.512-1.143-1.143s0.512-1.143 1.143-1.143h13.714c0.631 0 1.143 0.512 1.143 1.143s-0.512 1.143-1.143 1.143zM22.857 10.857h-13.714c-0.631 0-1.143-0.512-1.143-1.143s0.512-1.143 1.143-1.143h13.714c0.631 0 1.143 0.512 1.143 1.143s-0.512 1.143-1.143 1.143z"></path>
        </symbol>
    </defs>
</svg>